<svg width="708" height="268" viewBox="0 0 708 268" fill="none" xmlns="http://www.w3.org/2000/svg">
<path fill-rule="evenodd" clip-rule="evenodd" d="M33.2089 0.913333C17.797 4.20117 6.19295 14.955 1.45577 30.3388L0.210447 34.3832L0.0540386 106.318C-0.0823456 169.124 0.00370598 178.865 0.731088 183.082C3.52155 199.248 14.1168 211.072 30.2323 216.001C36.1001 217.796 47.0833 217.838 53.1205 216.089C69.3773 211.378 80.5678 198.824 83.2517 182.288C83.5553 180.417 83.8053 174.806 83.8075 169.82L83.8118 160.755H56.2286L55.9396 188.086H27.7969V122.6L83.8481 122.32L83.6819 78.3514C83.5158 34.5255 83.5114 34.3702 82.2981 30.421C81.6286 28.2416 80.2539 24.832 79.2429 22.8441C70.7011 6.04452 51.6652 -3.02449 33.2089 0.913333ZM692.399 1.7522C687.898 3.32549 685.012 7.37697 685.02 12.1125C685.026 15.7419 686.157 18.3272 688.772 20.6896C695.211 26.507 705.857 23.2002 707.729 14.8018C709.656 6.15168 700.969 -1.24338 692.399 1.7522ZM115.202 215.417H142.803V29.7829H170.946L171.014 75.2443C171.051 100.248 171.143 120.949 171.217 121.247C171.291 121.545 171.382 142.855 171.42 168.603L171.487 215.417H199.089V29.7829H227.232V215.417H254.833L254.964 156.561C255.255 25.6389 255.259 26.218 253.905 21.9127C251.647 14.7368 246.11 8.09569 239.959 5.18562C233.49 2.12564 235.12 2.19816 172.705 2.1895L115.202 2.18138V215.417ZM286.223 267.914H313.815L314.095 215.688L331.143 215.379C344.884 215.13 348.716 214.897 350.898 214.18C357.513 212.005 364.114 206.481 367.017 200.691C370.272 194.198 370.11 198.99 370.11 108.983C370.11 51.0789 369.933 25.7363 369.514 23.7209C367.996 16.4184 362.202 8.809 355.639 5.49844C349.226 2.26364 348.437 2.19816 315.854 2.1895L286.223 2.18138V267.914ZM401.771 193.498C401.771 203.756 413.62 212.105 422.335 214.334C426.089 215.294 428.338 215.417 442.178 215.417H457.786V267.914H485.388V2.18138H457.786V188.374L429.373 188.086L429.707 2.18138H401.48C401.48 2.18138 401.771 191.496 401.771 193.498ZM538.426 3.02945C527.99 5.28899 520.03 13.0786 517.593 23.4183C516.904 26.3365 516.793 39.877 516.786 121.112L516.778 215.417H544.379V29.7829H572.522V2.18138L557.233 2.22414C546.258 2.25553 540.951 2.48229 538.426 3.02945ZM603.371 29.7829H653.162V58.3728L636.52 58.5979C622.451 58.7884 619.417 58.9719 616.901 59.7875C611.875 61.4165 608.852 63.2485 605.255 66.8454C601.717 70.3832 599.962 73.2673 598.169 78.4916C597.193 81.3335 597.147 83.9686 597.147 136.671C597.147 188.914 597.201 192.071 598.158 195.543C600.017 202.285 605.704 209.095 612.172 212.324C618.025 215.247 619.951 215.398 651.673 215.408L680.763 215.417V120.819C680.763 17.2307 680.953 23.5152 677.623 16.8448C675.742 13.0753 670.286 7.52039 666.66 5.68299C660.261 2.44008 661.186 2.52775 631.108 2.31939L603.371 2.12672V29.7829ZM701.772 4.48801C704.358 6.19876 705.768 9.04497 705.742 12.4968C705.699 17.9495 701.83 21.7893 696.419 21.7476C693.346 21.7238 691.162 20.7074 689.216 18.3954C687.448 16.2944 687.065 14.8029 687.363 11.2001C687.953 4.09401 695.714 0.478744 701.772 4.48801ZM55.9396 94.9984H27.7969L27.5176 29.7829H56.2189L55.9396 94.9984ZM342.509 188.357H314.366V29.7829H342.509V188.357ZM653.162 188.357H625.019V86.0685H653.162V188.357Z" fill="#004A82"/>
<path d="M692.173 18.9422V5.16604H696.828C697.904 5.16604 698.788 5.34991 699.479 5.71763C700.169 6.08087 700.68 6.58088 701.012 7.21767C701.344 7.85446 701.51 8.5787 701.51 9.39038C701.51 10.2021 701.344 10.9218 701.012 11.5496C700.68 12.1775 700.171 12.6707 699.485 13.0295C698.799 13.3838 697.922 13.5609 696.855 13.5609H693.088V12.0541H696.801C697.537 12.0541 698.129 11.9465 698.577 11.7313C699.03 11.516 699.357 11.2111 699.559 10.8164C699.765 10.4173 699.869 9.94197 699.869 9.39038C699.869 8.8388 699.765 8.35672 699.559 7.94415C699.353 7.53158 699.023 7.21319 698.57 6.98897C698.117 6.76026 697.519 6.64591 696.774 6.64591H693.842V18.9422H692.173ZM698.658 12.7537L702.048 18.9422H700.111L696.774 12.7537H698.658Z" fill="#004A82"/>
</svg>
